<svg xmlns="http://www.w3.org/2000/svg" version="1.1" width="100%" height="100%"
     viewBox="0 0 1000 600">
    <rect width="1000" height="600" x="0" y="0" fill="#2a2b2e"/>
    <g>
        <rect width="333.3333333333333" height="333.3333333333333" rx="13.333333333333334" ry="13.333333333333334"
              y="204.00416522260508" fill="#3993dd"
              transform="matrix(0.6876372140664788,0,0,0.6876372140664787,0,45.1129656637213)" x="181.78195190429688"/>
        <path d="M283.1063539497785 445.67083348216613L267.24325919194445 445.67083348216613L267.24325919194445 295.67083802347224L283.1063539497785 295.67083802347224L283.1063539497785 445.67083348216613ZM376.94563682304477 445.67083348216613L361.08254206521065 445.67083348216613L361.08254206521065 309.391075703325L308.3742103276419 309.391075703325L308.3742103276419 295.67083802347224L429.6539685606136 295.67083802347224L429.6539685606136 309.391075703325L376.94563682304477 309.391075703325L376.94563682304477 445.67083348216613Z "
              fill="#2a2b2e" transform="matrix(0.6876372140664788,0,0,0.6876372140664787,0,45.1129656637213)"/>
        <path d="M612.4852544112265 381.42733556424224L612.4852544112265 367.8044046954818L691.2086553534778 367.8044046954818L691.2086553534778 381.42733556424224L612.4852544112265 381.42733556424224ZM614.1992023296389 309.2937688600248L614.1992023296389 444.60700193606397L598.4486119759528 444.60700193606397L598.4486119759528 295.67083799126436L700.5762672523867 295.67083799126436L700.5762672523867 309.2937688600248L614.1992023296389 309.2937688600248ZM771.6460042141413 445.67083167852684L771.6460042141413 445.67083167852684Q755.4521514677623 445.67083167852684 742.5975420796696 438.34222678600497Q729.7133818653972 430.98407106730355 722.2665736681571 418.12946167921075Q714.8197654709172 405.2453014649384 714.8197654709172 388.63773715204604L714.8197654709172 388.63773715204604Q714.8197654709172 371.85286788207657 722.2665736681571 359.0869109725223Q729.7133818653972 346.32095406296804 742.4793387749514 339.08100164898474Q755.2452956845057 331.84104923500144 771.6460042141413 331.84104923500144L771.6460042141413 331.84104923500144Q788.2240177008542 331.84104923500144 801.1081779151265 339.08100164898474Q813.9627873032193 346.32095406296804 821.3209430219207 359.0869109725223Q828.6495479144427 371.85286788207657 828.6495479144427 388.63773715204604L828.6495479144427 388.63773715204604Q828.6495479144427 405.2453014649384 821.3209430219207 418.12946167921075Q813.9627873032193 430.98407106730355 800.9899746104085 438.34222678600497Q788.0171619175975 445.67083167852684 771.6460042141413 445.67083167852684ZM771.6460042141413 432.2547565930231L771.6460042141413 432.2547565930231Q783.7618429477461 432.2547565930231 793.1294548466551 426.84695540217024Q802.4970667455641 421.40960338513787 807.904867936417 411.5100766149974Q813.3422199534493 401.64010067103646 813.3422199534493 388.63773715204604L813.3422199534493 388.63773715204604Q813.3422199534493 375.45806867597844 807.904867936417 365.6767452105561Q802.4970667455641 355.8954217451337 793.1294548466551 350.45806972810135Q783.7618429477461 345.020717711069 771.852859997398 345.020717711069L771.852859997398 345.020717711069Q759.9438770470499 345.020717711069 750.5762651481409 350.45806972810135Q741.2086532492319 355.8954217451337 735.6826487536609 365.6767452105561Q730.1566442580901 375.45806867597844 730.1566442580901 388.63773715204604L730.1566442580901 388.63773715204604Q730.1566442580901 401.64010067103646 735.6826487536609 411.5100766149974Q741.2086532492319 421.40960338513787 750.5762651481409 426.84695540217024Q759.9438770470499 432.2547565930231 771.6460042141413 432.2547565930231ZM874.601082623602 444.60700193606397L859.5006104458654 444.60700193606397L859.5006104458654 332.90487897746425L873.980515273832 332.90487897746425L873.980515273832 363.3422299423737L872.4734231386764 358.02308123005946Q877.1720045012206 345.2571243205052 888.2240134923625 338.5490867777533Q899.3055733096838 331.84104923500144 915.67673101314 331.84104923500144L915.67673101314 331.84104923500144L915.67673101314 346.5278098462247Q914.8197570539338 346.5278098462247 913.9627830947276 346.4096065415066Q913.135359961701 346.32095406296804 912.2783860024948 346.32095406296804L912.2783860024948 346.32095406296804Q894.6069919471396 346.32095406296804 884.6188126984606 357.04790396613515Q874.601082623602 367.8044046954818 874.601082623602 387.57390740958317L874.601082623602 387.57390740958317L874.601082623602 444.60700193606397ZM991.001786944746 445.67083167852684L991.001786944746 445.67083167852684Q976.728737900036 445.67083167852684 966.0904404754075 440.3516829662126Q955.452143050779 435.0325342538983 949.6010794672333 424.39423682926974Q943.7500158836875 413.7559394046412 943.7500158836875 397.7984932676984L943.7500158836875 397.7984932676984L943.7500158836875 332.90487897746425L958.8800388876037 332.90487897746425L958.8800388876037 396.08454534928603Q958.8800388876037 413.9627951878979 967.6861850891017 423.0053479988321Q976.5218821167794 432.04790080976636 992.4793282537222 432.04790080976636L992.4793282537222 432.04790080976636Q1004.1814554208136 432.04790080976636 1012.8102966652344 427.26066696868355Q1021.4095870834759 422.4734331276007 1025.989965141302 413.3422278381279Q1030.5703431991283 404.1814717224755 1030.5703431991283 391.4155148129213L1030.5703431991283 391.4155148129213L1030.5703431991283 332.90487897746425L1045.670815376865 332.90487897746425L1045.670815376865 444.60700193606397L1031.2204613750778 444.60700193606397L1031.2204613750778 413.9627951878979L1033.55497664326 419.4887996834688Q1028.235827930946 431.84104502650973 1017.0656156350859 438.75593835251834Q1005.8954033392259 445.67083167852684 991.001786944746 445.67083167852684ZM1227.378845554756 331.84104923500144L1227.378845554756 331.84104923500144Q1241.0017764235167 331.84104923500144 1251.1081589769137 337.0419946425976Q1261.2145415303107 342.2724908763733 1266.8587493306 352.91078830100184Q1272.4734063047094 363.5490857256304 1272.4734063047094 379.71338764582987L1272.4734063047094 379.71338764582987L1272.4734063047094 444.60700193606397L1257.3729341269727 444.60700193606397L1257.3729341269727 381.19092895480605Q1257.3729341269727 363.5490857256304 1248.9804994919882 354.50653291469615Q1240.558514030824 345.46398010376186 1225.2511860698305 345.46398010376186L1225.2511860698305 345.46398010376186Q1213.7559146859958 345.46398010376186 1205.3634800510113 350.2512139448447Q1196.941494589847 355.03844778592753 1192.3906673582 364.0810005968618Q1187.810289300374 373.12355340779607 1187.810289300374 385.8895103173503L1187.810289300374 385.8895103173503L1187.810289300374 444.60700193606397L1172.7098171226376 444.60700193606397L1172.7098171226376 381.19092895480605Q1172.7098171226376 363.5490857256304 1164.1991791829346 354.50653291469615Q1155.6885412432316 345.46398010376186 1140.3516624560589 345.46398010376186L1140.3516624560589 345.46398010376186Q1129.0927976816604 345.46398010376186 1120.5821597419576 350.2512139448447Q1112.0715218022547 355.03844778592753 1107.4911437444284 364.0810005968618Q1102.9107656866022 373.12355340779607 1102.9107656866022 385.8895103173503L1102.9107656866022 385.8895103173503L1102.9107656866022 444.60700193606397L1087.8102935088657 444.60700193606397L1087.8102935088657 332.90487897746425L1102.2606475106527 332.90487897746425L1102.2606475106527 363.1058233329375L1099.9261322424704 357.7866746206233Q1105.0384251715282 345.67083588701854 1116.4154932506447 338.75594256101Q1127.7925613297614 331.84104923500144 1143.3362959001906 331.84104923500144L1143.3362959001906 331.84104923500144Q1159.707453603647 331.84104923500144 1171.2027249874818 340.0266280867295Q1182.6979963713165 348.2122069384576 1186.0963413819618 364.6129154680932L1186.0963413819618 364.6129154680932L1180.1566253198775 362.27840019991083Q1185.0325116394988 348.6554693311504 1197.473409461078 340.2334838699862Q1209.943858108837 331.84104923500144 1227.378845554756 331.84104923500144Z "
              fill="#f4ebe8" transform="matrix(0.6876372140664788,0,0,0.6876372140664787,0,45.1129656637213)"/>
    </g>
</svg>